<?xml version="1.0" encoding="utf-8"?>
<!-- Generator: Adobe Illustrator 16.0.0, SVG Export Plug-In . SVG Version: 6.00 Build 0)  -->
<!DOCTYPE svg PUBLIC "-//W3C//DTD SVG 1.1//EN" "http://www.w3.org/Graphics/SVG/1.1/DTD/svg11.dtd">
<svg version="1.1" id="Capa_1" xmlns="http://www.w3.org/2000/svg" xmlns:xlink="http://www.w3.org/1999/xlink" x="0px" y="0px"
	 width="612px" height="792px" viewBox="0 0 612 792" enable-background="new 0 0 612 792" xml:space="preserve">
<path d="M436.677,337.273c0-87.704-8.819-166.516-115.357-167.565l-12.857-0.133c-79.829-0.936-112.817-1.27-143.544,46.68
	c-18.053,28.191-33.438,71.447-17.381,100.573c10.968,19.901,33.783,29.985,67.818,29.985h105.253
	c5.504,0.659,37.58,3.578,52.892-16.314c10.612-13.776,10.229-34.04-1.122-60.228c-2.1-4.837-7.765-7.06-12.597-4.971
	c-4.86,2.089-7.095,7.699-4.996,12.536c5.773,13.29,11.054,31.196,3.529,41.022c-7.948,10.361-28.493,9.989-35.693,8.968
	c-0.46-0.066-0.928-0.096-1.388-0.096H215.355c-26.508,0-43.668-6.754-51.012-20.082c-11.246-20.417,0.306-55.458,16.748-81.14
	c25.004-39,48.75-38.714,127.159-37.865l12.886,0.143c63.906,0.63,96.356,23.765,96.356,148.485
	c0,82.468-39.239,177.546-49.572,201.157H220.129c-24.073-32.361-71.277-110.963-40.342-141.741
	c11.544-11.504,23.019-16.16,32.424-13.06c8.09,2.671,12.645,10.247,13.575,16.581c0.487,3.32,0.45,9.492-5.34,13.52
	c-16.164,11.257-15.655,24.089-14.688,29.077c1.755,9.045,8.936,16.297,18.293,18.48c11.045,2.604,22.559-2.242,30.687-12.896
	c3.203-4.189,2.387-10.18-1.821-13.369c-4.237-3.176-10.238-2.365-13.431,1.822c-3.479,4.563-7.515,6.67-11.063,5.867
	c-2.003-0.465-3.499-1.84-3.834-3.51c-0.537-2.756,2.1-6.525,6.854-9.836c10.229-7.125,15.215-19.052,13.327-31.913
	c-2.188-14.797-12.589-27.332-26.526-31.931c-9.617-3.177-29.116-5.086-52.011,17.678c-47.033,46.805,26.04,149.83,39.536,167.957
	v91.635c0,5.266,4.285,9.541,9.588,9.541h158.796c5.301,0,9.587-4.275,9.587-9.541V550.06
	C390.966,534.194,436.677,430.226,436.677,337.273z"/>
</svg>
