<?xml version="1.0" encoding="utf-8"?>
<!-- Generator: Adobe Illustrator 16.0.0, SVG Export Plug-In . SVG Version: 6.00 Build 0)  -->
<!DOCTYPE svg PUBLIC "-//W3C//DTD SVG 1.1//EN" "http://www.w3.org/Graphics/SVG/1.1/DTD/svg11.dtd">
<svg version="1.1" id="Capa_1" xmlns="http://www.w3.org/2000/svg" xmlns:xlink="http://www.w3.org/1999/xlink" x="0px" y="0px"
	 width="612px" height="792px" viewBox="0 0 612 792" enable-background="new 0 0 612 792" xml:space="preserve">
<path fill="#990000" d="M558.567,104.262C526.521,72.215,484.095,54.7,438.813,54.7c-45.279,0-87.836,17.645-119.881,49.692
	l-16.738,16.737l-16.996-16.997c-32.046-32.046-74.732-49.821-120.012-49.821c-45.151,0-87.707,17.645-119.623,49.562
	C13.516,135.919-4.129,178.475-3.999,223.756c0,45.279,17.775,87.706,49.821,119.752l243.657,243.658
	c3.373,3.373,7.914,5.189,12.326,5.189s8.953-1.686,12.326-5.061l244.176-243.268c32.047-32.047,49.691-74.603,49.691-119.883
	C608.13,178.864,590.614,136.308,558.567,104.262z"/>
</svg>
