<?xml version="1.0" encoding="utf-8"?>
<!-- Generator: Adobe Illustrator 16.0.0, SVG Export Plug-In . SVG Version: 6.00 Build 0)  -->
<!DOCTYPE svg PUBLIC "-//W3C//DTD SVG 1.1//EN" "http://www.w3.org/Graphics/SVG/1.1/DTD/svg11.dtd">
<svg version="1.1" id="Capa_1" xmlns="http://www.w3.org/2000/svg" xmlns:xlink="http://www.w3.org/1999/xlink" x="0px" y="0px"
	 width="187.059px" height="187.059px" viewBox="0 0 187.059 187.059" enable-background="new 0 0 187.059 187.059"
	 xml:space="preserve">
<path d="M93.528,0.281c-51.565,0-93.528,41.956-93.528,93.529c0,47.86,35.841,87.813,83.367,92.957c0.078,0,0.167,0.012,0.25,0.012
	c1.047,0,1.976-0.705,2.256-1.734c2.67-9.889,2.736-16.892,2.736-17.185c0-0.597-0.219-1.175-0.63-1.602
	c-3.042-3.294-10.181-16.525-12.668-21.336c-0.17-0.341-0.423-0.633-0.743-0.854c-7.258-5.071-8.661-12.36-8.674-12.435
	c-0.143-0.791-0.69-1.455-1.445-1.747c-0.743-0.286-1.597-0.207-2.257,0.292c-8.841,6.645-14.498,6.645-18.239,6.645h-0.704
	c-4.516,0-17.866-1.633-17.896-1.633c-1.708-0.299-3.934-0.962-4.789-2.496c-0.892-1.564-0.119-3.551-0.119-3.551
	c0.095-0.201,0.152-0.432,0.171-0.664c0.971-9.363,8.266-19.217,8.385-19.351l11.186-15.687c2.684-4.714,6.878-5.225,8.557-5.225
	l0.604,0.024c2.421,0.183,9.515-0.316,9.584-0.316c0.466,0,0.604,0.152,0.661,0.194c0.329,0.329,0.454,1.169,0.441,1.504
	c-0.036,0.92,0.492,1.784,1.31,2.187c0.432,0.213,0.374,1.954-0.107,3.336c-0.137,0.392-0.16,1.401-0.066,1.815
	c-0.094,0.122-0.469,0.249-0.691,0.292c-1.087,0.073-1.748,0.536-1.927,1.596c-0.582-0.165-1.553,0.049-2.101,0.348
	c-0.296-0.092-0.911-0.98-1.188-1.833c-0.216-0.677-0.752-1.212-1.413-1.462c-0.664-0.262-1.461-0.194-2.052,0.171
	c0,0-0.344,0.194-1.403,0.194c-1.689,0-3.593-0.469-3.604-0.486c-0.798-0.164-1.607,0.019-2.189,0.597
	c-9.033,8.707-8.187,22.506-8.142,23.09c0.066,1.072,0.853,1.949,1.905,2.132c1.117,0.237,2.083-0.354,2.546-1.321
	c2.214-4.828,10.221-5.213,12.613-5.213c0.868,0,1.404,0.043,1.446,0.043c0.685,0.158,1.297-0.146,1.784-0.608
	c5.735-5.285,13.398-5.76,16.249-5.76c0.037,0,0.069,0,0.094,0c0.298,0.085,0.548,0,0.786-0.087
	c4.101-1.192,7.152-3.592,9.045-7.147c3.02-5.681,1.945-12.422,1.629-13.426c-0.07-0.221-0.167-0.421-0.292-0.606
	c-1.802-2.612-6.722-10.014-7.87-12.769c-1.471-3.529-2.643-11.512-1.267-14.292c4.305-8.71,12.147-10.007,16.438-10.007
	c3.604,0,6.468,0.903,7.932,1.726c3.459,1.998,6.162,7.466,6.625,9.323c-0.036,0.18-0.146,0.393-0.243,0.618
	c-0.402,0.965-0.976,2.289-0.305,3.616c0.768,1.583,2.552,2.471,4.293,3.328c0.469,0.25,1.175,0.594,1.644,0.801
	c-0.268,0.263-0.572,0.536-0.864,0.759c-0.847,0.661-1.127,1.826-0.693,2.795c0.22,0.466,0.438,1.041,0.542,1.422
	c-0.043,0.079-0.092,0.143-0.135,0.226c-1.084,1.881-0.999,3.353,0.621,4.7c0,0,0,0,0,0.013c-0.354,0.615-0.877,1.639-0.427,2.941
	c0.348,0.925,0.5,1.553,0.549,1.946h-0.013c-5.809,0-8.228,2.771-8.494,3.077c-0.23,0.293-0.384,0.634-0.463,0.986
	c-0.84,3.793-0.359,6.856,1.431,9.062c2.277,2.844,5.955,3.435,8.642,3.435c1.235,0,2.095-0.129,2.095-0.129
	c0.907-0.14,1.662-0.81,1.906-1.711c2.082-7.958,15.729-10.326,15.868-10.339c0.896-0.152,1.606-0.792,1.862-1.65
	c2.771-9.313,15.563-12.93,15.698-12.967c0.853-0.237,1.51-0.943,1.681-1.83c0.158-0.877-0.184-1.763-0.9-2.299
	c-0.598-0.444-0.634-0.469-1.522-3.029c-0.475-1.396-1.157-3.343-2.253-6.18c-3.501-9.049-11.01-12.13-11.32-12.252
	c-1.09-0.433-2.344,0.019-2.916,1.048c-0.768,1.4-2.004,1.513-2.339,1.513c-1.234-0.21-2.105,0.707-2.374,1.827
	c-0.128,0.594-0.013,1.199,0.292,1.695c-1.979,2.98-5.071,3.642-7.409,3.642c-0.257,0-0.471-0.012-0.652-0.023
	c-2.539-2.431-1.79-7.302-1.396-9.115c13.074-9.408,15.925-5.019,16.132-4.719c1.734,2.219,10.011,7.105,12.763,8.665
	c14.449,6.163,19.776,15.309,19.839,15.402c0.109,0.181,0.229,0.356,0.39,0.5c0.572,0.601,0.828,1.196,0.805,1.982
	c-0.079,2.807-3.594,6.503-4.812,7.575c-0.273,0.244-0.487,0.539-0.634,0.88c-8.063,19.787-26.938,25.206-27.127,25.267
	c-0.651,0.185-1.212,0.646-1.51,1.269c-0.28,0.627-0.28,1.346,0.018,1.96c6.12,13.056-4.743,34.074-4.847,34.275
	c-0.243,0.444-0.316,0.962-0.243,1.449c2.058,12.763,0.194,25.002-1.705,33.009c-0.207,0.871,0.098,1.768,0.767,2.339
	c0.701,0.561,1.608,0.67,2.448,0.354c34.173-14.87,56.252-48.52,56.252-85.76C187.064,42.237,145.091,0.281,93.528,0.281z
	 M95.867,15.29c0,1.291-1.049,2.338-2.339,2.338c-41.98,0-76.133,34.163-76.133,76.146c0,1.29-1.047,2.338-2.338,2.338
	s-2.338-1.048-2.338-2.338c0-44.558,36.246-80.821,80.809-80.821C94.819,12.951,95.867,13.999,95.867,15.29z"/>
</svg>
