<?xml version="1.0" encoding="utf-8"?>
<!-- Generator: Adobe Illustrator 16.0.0, SVG Export Plug-In . SVG Version: 6.00 Build 0)  -->
<!DOCTYPE svg PUBLIC "-//W3C//DTD SVG 1.1//EN" "http://www.w3.org/Graphics/SVG/1.1/DTD/svg11.dtd">
<svg version="1.1" id="Capa_1" xmlns="http://www.w3.org/2000/svg" xmlns:xlink="http://www.w3.org/1999/xlink" x="0px" y="0px"
	 width="187.059px" height="187.059px" viewBox="0 0 187.059 187.059" enable-background="new 0 0 187.059 187.059"
	 xml:space="preserve">
<path d="M128.432,178.512c1.534-7.989,2.539-18.48,0.913-29.441c1.876-3.812,10.078-21.684,5.554-35.311
	c5.797-2.229,20.24-9.299,27.561-26.684c1.461-1.376,5.826-5.845,5.979-10.543c0.062-1.97-0.621-3.766-1.967-5.225
	c-1.078-1.756-7.144-10.823-21.659-16.985c-4.737-2.749-10.352-6.365-11.021-7.193c-0.207-0.313-2.096-3.081-6.882-3.081
	c-4.47,0-10.027,2.433-16.52,7.222c-0.396,0.292-0.688,0.715-0.841,1.19c-0.128,0.429-3.123,10.519,3.354,15.319
	c0.286,0.207,0.641,0.356,0.986,0.417c0,0,0.779,0.138,1.997,0.138c2.546,0,8.805-0.686,11.91-6.74
	c0.201-0.286,0.391-0.648,0.5-1.065c0.742-0.329,1.474-0.81,2.131-1.439c1.948,1.203,5.285,3.885,7.186,8.793
	c1.084,2.768,1.729,4.664,2.204,6.021c0.316,0.88,0.548,1.596,0.815,2.201c-4.434,1.791-12.354,5.956-15.368,13.713
	c-3.849,0.865-14.413,3.921-17.708,11.862c-0.012,0-0.024,0-0.024,0c-1.362,0-3.812-0.231-4.992-1.692
	c-0.768-0.963-0.986-2.448-0.657-4.415c0.621-0.421,2.01-1.127,4.549-1.127l0.932,0.024c1.193,0,2.338-0.598,3.021-1.596
	c0.974-1.406,1.011-3.364,0.146-5.925c0.195-0.325,0.391-0.676,0.536-1.042c0.73-1.753,0.062-2.901-1.022-3.961
	c0.122-0.236,0.243-0.486,0.364-0.772c0.136-0.356,0.392-1.097-0.219-2.938c2.021-1.97,1.863-3.179,1.803-3.66
	c-0.279-2.381-2.643-3.553-4.713-4.582c-0.523-0.262-1.291-0.642-1.767-0.922c0-0.006,0-0.006,0-0.006
	c0.354-0.81,0.768-1.802,0.536-2.886c-0.755-3.711-4.264-10.257-8.892-12.939c-2.594-1.464-6.427-2.355-10.263-2.355
	c-9.146,0-16.678,4.594-20.633,12.606c-2.28,4.619-0.454,14.285,1.154,18.17c1.416,3.404,6.686,11.201,8.062,13.218
	c0.28,1.797,1.392,11.594-7.246,14.352l-0.329-0.012c-2.582,0-11.292,0.469-18.236,6.352c-2.332-0.141-8.238,0.062-12.833,2.733
	c0.603-3.807,2.052-8.72,5.504-12.55c1.261,0.226,3.312,0.475,4.759,0.25c1.102,1.803,3.604,3.787,6.479,2.667
	c1.571,0.157,3.285-0.592,4.09-1.926c0.821-0.284,1.802-0.81,2.545-1.782c0.548-0.713,1.139-1.932,0.959-3.686
	c0.659-2.259,0.909-5.712-1.233-7.685c-0.158-1.025-0.582-2.441-1.653-3.547C57.265,89,55.886,88.44,53.934,88.44
	c-0.006,0-0.03,0-0.042,0c-0.018,0-6.427,0.524-8.829,0.312c-0.305-0.024-0.647-0.05-0.993-0.05c-1.952,0-8.609,0.548-12.488,7.396
	L20.55,111.534c-0.329,0.433-8.004,10.777-9.229,21.336c-0.372,1.108-1.208,4.232,0.445,7.223c1.416,2.563,4.152,4.214,8.235,4.89
	c0.563,0.079,13.768,1.688,18.675,1.688l-0.012-2.339l0.617,2.339c3.728,0,9.733,0,18.351-5.669
	c1.232,3.136,3.849,7.892,9.116,11.745c1.47,2.819,8.53,16.223,12.488,21.111c-0.105,1.895-0.478,6.801-2.058,13.201
	C33.043,181.298,0,143.795,0,98.991c0-48.997,39.855-88.853,88.853-88.853c48.994,0,88.854,39.855,88.854,88.853
	C177.687,132.807,158.494,163.52,128.432,178.512z"/>
</svg>
