<?xml version="1.0" encoding="utf-8"?>
<!-- Generator: Adobe Illustrator 16.0.0, SVG Export Plug-In . SVG Version: 6.00 Build 0)  -->
<!DOCTYPE svg PUBLIC "-//W3C//DTD SVG 1.1//EN" "http://www.w3.org/Graphics/SVG/1.1/DTD/svg11.dtd">
<svg version="1.1" id="Layer_1" xmlns="http://www.w3.org/2000/svg" xmlns:xlink="http://www.w3.org/1999/xlink" x="0px" y="0px"
	 width="612px" height="792px" viewBox="0 0 612 792" enable-background="new 0 0 612 792" xml:space="preserve">
<g>
	<path d="M463.968,298.459c-13.807-23.887-25.73-44.517-25.73-79.584c0-29.88,10.081-141.109,10.182-142.23
		c0.479-5.27-3.405-9.931-8.676-10.41c-5.271-0.478-9.93,3.405-10.409,8.675c-0.419,4.608-10.26,113.222-10.26,143.965
		c0,40.207,13.748,63.993,28.303,89.176c0.664,1.148,1.329,2.301,1.992,3.454H162.631c0.665-1.153,1.329-2.305,1.993-3.454
		c14.555-25.183,28.303-48.969,28.303-89.176c0-30.744-9.842-139.356-10.261-143.965c-0.479-5.27-5.158-9.156-10.409-8.675
		c-5.27,0.479-9.155,5.14-8.676,10.41c0.101,1.119,10.182,112.347,10.182,142.23c0,35.067-11.925,55.697-25.732,79.585
		c-16.685,28.867-35.595,61.587-35.595,124.84c0,43.052,6.948,97.878,20.648,162.958c10.172,48.325,20.502,84.624,20.605,84.984
		c1.202,4.209,5.04,6.952,9.21,6.952c0.873,0,1.758-0.119,2.637-0.372c5.087-1.453,8.035-6.757,6.582-11.847
		c-0.389-1.358-37.275-131.537-40.313-230.154c87.613,24.666,150.015,72.156,164.612,83.968v148.82c0,5.291,4.289,9.583,9.583,9.583
		c5.293,0,9.583-4.29,9.583-9.583V519.785c14.577-11.815,76.838-59.263,164.613-83.964c-3.039,98.576-39.924,228.797-40.313,230.155
		c-1.452,5.089,1.494,10.393,6.583,11.846c0.878,0.252,1.765,0.372,2.635,0.372c4.171,0,8.008-2.743,9.21-6.952
		c0.104-0.361,10.432-36.66,20.605-84.984c13.702-65.08,20.647-119.907,20.647-162.959
		C499.563,360.047,480.651,327.327,463.968,298.459z M305.999,502.864c-19.768-15.767-83.958-62.738-174.294-86.941
		c0.438-17.16,2.396-31.681,5.378-44.368H336.66c5.293,0,9.583-4.29,9.583-9.583c0-5.292-4.289-9.583-9.583-9.583H142.746
		c2.817-7.844,6.011-14.986,9.401-21.72h307.705c3.392,6.734,6.585,13.876,9.401,21.72h-30.38c-5.293,0-9.583,4.29-9.583,9.583
		c0,5.292,4.289,9.583,9.583,9.583h36.043c2.981,12.687,4.938,27.208,5.378,44.368C389.957,440.127,325.768,487.098,305.999,502.864
		z"/>
</g>
</svg>
